<svg id="accommodation_icon" xmlns="http://www.w3.org/2000/svg" width="134.186" height="107.59" viewBox="0 0 134.186 107.59">
  <defs>
    <style>
      .cls-1 {
        fill: #c7e1f5;
        stroke: #2065a8;
        stroke-width: 3px;
      }

      .cls-1, .cls-2 {
        fill-rule: evenodd;
      }

      .cls-2 {
        fill: #2065a8;
      }
    </style>
  </defs>
  <path id="シェイプ_1081" data-name="シェイプ 1081" class="cls-1" d="M1006.38,7403.95v38.56H932.407v-38.56H920.434l48.959-41.11,48.957,41.11h-11.97Z" transform="translate(-902.344 -7360.88)"/>
  <path id="accommodation" class="cls-2" d="M905.184,7466.23a0.706,0.706,0,0,1-.144-0.52v-6.26a0.706,0.706,0,0,1,.144-0.52,0.783,0.783,0,0,1,.528-0.13h0.72a0.677,0.677,0,0,1,.744.79v5.98a0.677,0.677,0,0,1-.744.79h-0.72A0.783,0.783,0,0,1,905.184,7466.23Zm2.04-8.39a1.524,1.524,0,0,0-1.7-1.15h-0.744a2.13,2.13,0,0,0-2.448,2.37v7.04a2.13,2.13,0,0,0,2.448,2.37h0.744a1.55,1.55,0,0,0,1.656-1.01v1.01h2.736v-11.78h-2.688v1.15Zm13.1,1.22q0-2.37-2.616-2.37H915.36q-2.616,0-2.616,2.37v7.04q0,2.37,2.616,2.37h2.352q2.616,0,2.616-2.37v-1.61h-2.664v1.22a0.706,0.706,0,0,1-.144.52,0.783,0.783,0,0,1-.528.13h-0.864a0.783,0.783,0,0,1-.528-0.13,0.706,0.706,0,0,1-.144-0.52v-6.26a0.706,0.706,0,0,1,.144-0.52,0.783,0.783,0,0,1,.528-0.13h0.864a0.783,0.783,0,0,1,.528.13,0.706,0.706,0,0,1,.144.52v1.2h2.664v-1.59Zm10.08,0q0-2.37-2.616-2.37H925.44q-2.616,0-2.616,2.37v7.04q0,2.37,2.616,2.37h2.352q2.616,0,2.616-2.37v-1.61h-2.664v1.22a0.706,0.706,0,0,1-.144.52,0.783,0.783,0,0,1-.528.13h-0.864a0.783,0.783,0,0,1-.528-0.13,0.706,0.706,0,0,1-.144-0.52v-6.26a0.706,0.706,0,0,1,.144-0.52,0.783,0.783,0,0,1,.528-0.13h0.864a0.783,0.783,0,0,1,.528.13,0.706,0.706,0,0,1,.144.52v1.2h2.664v-1.59Zm7.56,7.24a0.83,0.83,0,0,1-.552.13h-1.1a0.83,0.83,0,0,1-.552-0.13,0.706,0.706,0,0,1-.144-0.52v-6.4a0.706,0.706,0,0,1,.144-0.52,0.83,0.83,0,0,1,.552-0.13h1.1a0.83,0.83,0,0,1,.552.13,0.706,0.706,0,0,1,.144.52v6.4A0.706,0.706,0,0,1,937.968,7466.3Zm-5.016-7.24v7.04q0,2.37,2.568,2.37h2.712q2.544,0,2.544-2.37v-7.04q0-2.37-2.544-2.37H935.52q-2.568,0-2.568,2.37h0Zm18.1-1.17a2.145,2.145,0,0,0-2.256-1.2h-0.72a1.567,1.567,0,0,0-1.7,1.08v-1.08H943.68v11.78h2.712v-8.88a0.677,0.677,0,0,1,.744-0.79h0.72a0.783,0.783,0,0,1,.528.13,0.706,0.706,0,0,1,.144.52v9.02h2.736v-8.88a0.677,0.677,0,0,1,.744-0.79h0.72a0.783,0.783,0,0,1,.528.13,0.706,0.706,0,0,1,.144.52v9.02h2.712v-9.41a2.13,2.13,0,0,0-2.448-2.37H952.92a1.691,1.691,0,0,0-1.872,1.2h0Zm15.336,0a2.145,2.145,0,0,0-2.256-1.2h-0.72a1.567,1.567,0,0,0-1.7,1.08v-1.08h-2.688v11.78h2.712v-8.88a0.677,0.677,0,0,1,.744-0.79h0.72a0.783,0.783,0,0,1,.528.13,0.706,0.706,0,0,1,.144.52v9.02H966.6v-8.88a0.677,0.677,0,0,1,.744-0.79h0.72a0.783,0.783,0,0,1,.528.13,0.706,0.706,0,0,1,.144.52v9.02h2.712v-9.41a2.13,2.13,0,0,0-2.448-2.37h-0.744a1.691,1.691,0,0,0-1.872,1.2h0Zm12.864,8.41a0.83,0.83,0,0,1-.552.13h-1.1a0.83,0.83,0,0,1-.552-0.13,0.706,0.706,0,0,1-.144-0.52v-6.4a0.706,0.706,0,0,1,.144-0.52,0.83,0.83,0,0,1,.552-0.13h1.1a0.83,0.83,0,0,1,.552.13,0.706,0.706,0,0,1,.144.52v6.4A0.706,0.706,0,0,1,979.248,7466.3Zm-5.016-7.24v7.04q0,2.37,2.568,2.37h2.712q2.544,0,2.544-2.37v-7.04q0-2.37-2.544-2.37H976.8q-2.568,0-2.568,2.37h0Zm13.416,7.17a0.706,0.706,0,0,1-.144-0.52v-6.29a0.694,0.694,0,0,1,.144-0.51,0.783,0.783,0,0,1,.528-0.13h0.72a0.764,0.764,0,0,1,.576.18,0.922,0.922,0,0,1,.168.63v5.98a0.677,0.677,0,0,1-.744.79h-0.72A0.783,0.783,0,0,1,987.648,7466.23Zm1.992-8.56a1.561,1.561,0,0,0-1.656-1.01H987.24a2.137,2.137,0,0,0-2.448,2.38v7.06a2.13,2.13,0,0,0,2.448,2.37h0.744a1.529,1.529,0,0,0,1.7-1.17v1.17h2.688v-16.05H989.64v5.25Zm8.424,8.56a0.706,0.706,0,0,1-.144-0.52v-6.26a0.706,0.706,0,0,1,.144-0.52,0.783,0.783,0,0,1,.528-0.13h0.72a0.68,0.68,0,0,1,.748.79v5.98a0.68,0.68,0,0,1-.748.79h-0.72A0.783,0.783,0,0,1,998.064,7466.23Zm2.036-8.39a1.517,1.517,0,0,0-1.7-1.15h-0.744a2.13,2.13,0,0,0-2.448,2.37v7.04a2.13,2.13,0,0,0,2.448,2.37H998.4a1.558,1.558,0,0,0,1.66-1.01v1.01h2.73v-11.78h-2.69v1.15Zm10.28-1.15h-1.61v-2.11h-2.71v2.11h-1.18v2.11h1.18v7.3q0,2.37,2.61,2.37h1.68v-2.18h-0.89a0.9,0.9,0,0,1-.55-0.13,0.735,0.735,0,0,1-.14-0.52v-6.84h1.61v-2.11Zm4.94,0h-2.71v11.78h2.71v-11.78Zm0.07-1.92v-2.38h-2.85v2.38h2.85Zm7.85,11.53a0.835,0.835,0,0,1-.55.13h-1.11a0.835,0.835,0,0,1-.55-0.13,0.735,0.735,0,0,1-.14-0.52v-6.4a0.735,0.735,0,0,1,.14-0.52,0.835,0.835,0,0,1,.55-0.13h1.11a0.835,0.835,0,0,1,.55.13,0.69,0.69,0,0,1,.14.52v6.4A0.69,0.69,0,0,1,1023.24,7466.3Zm-5.02-7.24v7.04c0,1.58.86,2.37,2.57,2.37h2.71q2.55,0,2.55-2.37v-7.04q0-2.37-2.55-2.37h-2.71c-1.71,0-2.57.79-2.57,2.37h0Zm13.42-1.29v-1.08h-2.69v11.78h2.71v-8.88a0.68,0.68,0,0,1,.75-0.79h0.72a0.807,0.807,0,0,1,.53.13,0.735,0.735,0,0,1,.14.52v9.02h2.74v-9.41c0-1.58-.83-2.37-2.48-2.37h-0.72a1.561,1.561,0,0,0-1.7,1.08h0Z" transform="translate(-902.344 -7360.88)"/>
</svg>
